<svg xmlns="http://www.w3.org/2000/svg" width="65" height="250" viewBox="0 0 65 250">
  <g fill="none" fill-rule="evenodd">
    <rect width="65" height="65" y="120" fill="#FFF"/>
    <g fill="#000" transform="rotate(90 32.5 32.5)">
      <polygon points="3.286 0 .5 65 13.5 65 10.714 0"/>
      <polygon points="23.286 0 20.5 65 33.5 65 30.714 0"/>
      <polygon points="44.286 0 41.5 65 54.5 65 51.714 0"/>
      <polygon points="63.286 0 60.5 65 73.5 65 70.714 0"/>
      <polygon points="84.286 0 81.5 65 94.5 65 91.714 0"/>
      <polygon points="104.286 0 101.5 65 114.5 65 111.714 0"/>
    </g>
    <rect width="65" height="65" y="185" fill="#0071BD"/>
    <circle cx="32.5" cy="217.5" r="30.5" fill="#FFFFFF"/>
  </g>
</svg>
